# xmcd
#
# Track frame offsets: 
#        150
#        17347
#        32912
#        49209
#        66229
#        82626
#        99745
#        115538
#        130861
#        148910
#
# Disc length: 2219 seconds
#
# Revision: 0
# Processed by: cddbd v1.5.2PL0 Copyright (c) Steve Scherf et al.
# Submitted via: ExactAudioCopy v0.99pb4
#
DISCID=7e08a90a
DTITLE=แมงปอ ชลธิชา - โอ้โฮชบางกอก
DYEAR=2009
DGENRE=Country
TTITLE0=โอ้โฮบางกอก
TTITLE1=จอห์นนี่ที่รัก
TTITLE2=นักรบนิรนาม
TTITLE3=สาวลูกทุ่ง
TTITLE4=แม่ครัวหัวไข่
TTITLE5=เป็นได้แค่เพื่อน
TTITLE6=รูดบัตรหัวใจ
TTITLE7=อย่าหลอกกันนะ
TTITLE8=นางสาวแนนซี่
TTITLE9=ตามหาสมชาย
EXTD=
EXTT0=
EXTT1=
EXTT2=
EXTT3=
EXTT4=
EXTT5=
EXTT6=
EXTT7=
EXTT8=
EXTT9=
PLAYORDER=
